<?xml version="1.0" encoding="UTF-8"?>
<svg id="Capa_2" data-name="Capa 2" xmlns="http://www.w3.org/2000/svg" viewBox="0 0 103.15 100.4">
  <defs>
    <style>
      .cls-1 {
        fill: #dda15e;
      }

      .cls-2 {
        fill: #fefae0;
      }
    </style>
  </defs>
  <g id="Capa_1-2" data-name="Capa 1">
    <g>
      <path class="cls-2" d="M51.2,56.87c-.8-.2-3.7-.03-3.84-.76-.03-.14.02-.92.07-1.07.21-.69,1.72-2.54,2.26-3.29,2.17-2.96,4.67-5.81,6.87-8.76,1.12-.94,1.83-.97,2.74.08,2.19,2.53,4.35,5.61,6.27,8.28.62.86,2.66,3.36,2.83,4.13.09.37.31,1.11-.26,1.27,0,0-3.88-.12-4.03.19-.04,2.3.25,4.6.15,6.9-.56,12.15-.45,22.2-12.03,31.95-6.06,5.1-14.56,4.75-17.82,4.49-20.18-1.63-29.67-19.97-32.69-32.06-2.54-10.16-2.32-22.38.99-32.44C9.46,15.28,28.63-.96,59.74.04c1,.03,10.63.54,10.63.54.02.17-2.03.1-4.05.56-10.97,2.5-20.53,7.4-28.05,13.54-16.84,13.74-22.91,32.75-19.03,50.6,1.25,5.75,5.68,16.34,14.34,18.57,3.25.84,7.77-2.02,9.41-3.84,3.21-3.56,5.05-6.39,6.49-10.51,1.04-2.97,1.53-6.02,1.76-9.08.09-1.18-.06-2.39-.02-3.56Z"/>
      <path class="cls-1" d="M44.06,62.87c1.02.11,1.45.66,1.1,1.34-2.59,3.75-4.48,8.13-7.26,11.77-1.08,1.41-1.65,1.17-2.9.07-2.41-2.13-4.84-4.79-7.01-7.07-.89-.93-2.84-2.7-3.37-3.63-.94-1.65,1.69-1.5,3.28-1.69-.84-2.57-.92-5.24-.81-7.88.49-11.88,5.45-31.03,19.24-38.93,4.27-2.44,10.43-4.88,20.01-3.67,13.75,1.74,19.94,12.83,20.82,24.52.83,11.07-.35,22.2,2.02,35.66,3.15,17.83,13.98,26.43,13.98,26.43,0,0-2.5.12-4.34-.22-10.27-1.91-18.13-8.05-21.17-14.71-6.18-13.54-3.57-35.95-7.06-44.06-2.17-5.05-7.86-12.01-16.44-7.56-7.37,3.82-11.13,14.15-12.08,20.28-.23,1.49-.47,2.87-.77,4.33-.26,1.27-.57,3.38-.37,4.63.02.11.07.39.25.39.85,0,2.11-.08,2.9,0Z"/>
    </g>
  </g>
</svg>