<svg width="34" height="34" viewBox="0 0 34 34" fill="none" xmlns="http://www.w3.org/2000/svg">
<path d="M0.333313 33.6666V3.66665C0.333313 2.74998 0.659702 1.96526 1.31248 1.31248C1.96526 0.659702 2.74998 0.333313 3.66665 0.333313H30.3333C31.25 0.333313 32.0347 0.659702 32.6875 1.31248C33.3403 1.96526 33.6666 2.74998 33.6666 3.66665V23.6666C33.6666 24.5833 33.3403 25.368 32.6875 26.0208C32.0347 26.6736 31.25 27 30.3333 27H6.99998L0.333313 33.6666ZM6.99998 20.3333H20.3333V17H6.99998V20.3333ZM6.99998 15.3333H27V12H6.99998V15.3333ZM6.99998 10.3333H27V6.99998H6.99998V10.3333Z" fill="#FEFAE0"/>
</svg>
